<svg viewBox="0 0 44.46 44.46" xmlns="http://www.w3.org/2000/svg" xmlns:xlink="http://www.w3.org/1999/xlink" width="44.459961" height="44.459961" fill="none">
	<rect id="circum:gift" width="44.459999" height="44.459999" x="0.000000" y="0.000000" fill="rgb(255,255,255)" fill-opacity="0" />
	<path id="Vector" d="M36.0034 10.3143L31.5945 10.3143C31.7645 9.6908 31.7666 9.03341 31.6007 8.40879C31.4348 7.78416 31.1067 7.2145 30.6497 6.75753C29.9496 6.07165 29.0085 5.6875 28.0284 5.6875C27.0483 5.6875 26.1072 6.07165 25.4071 6.75753L22.2301 9.94197L19.0623 6.75753C18.7182 6.41305 18.3096 6.13977 17.8598 5.95332C17.41 5.76687 16.9279 5.6709 16.441 5.6709C15.9541 5.6709 15.472 5.76687 15.0222 5.95332C14.5724 6.13977 14.1638 6.41305 13.8197 6.75753C13.3627 7.2145 13.0346 7.78416 12.8687 8.40879C12.7028 9.03341 12.7049 9.6908 12.8749 10.3143L8.45673 10.3143C7.71976 10.3143 7.01297 10.6071 6.49186 11.1282C5.97074 11.6493 5.67798 12.3561 5.67798 13.0931L5.67798 14.9456C5.67826 15.496 5.8434 16.0337 6.15213 16.4893C6.46085 16.945 6.899 17.2977 7.41007 17.502L7.41007 34.156C7.41349 35.3832 7.90252 36.5592 8.77031 37.427C9.63809 38.2948 10.8141 38.7838 12.0413 38.7873L32.4188 38.7873C33.6471 38.7873 34.8251 38.2993 35.6936 37.4308C36.5621 36.5623 37.0501 35.3843 37.0501 34.156L37.0501 17.5205C37.5626 17.3119 38.0017 16.9558 38.3117 16.4974C38.6217 16.039 38.7886 15.4989 38.7914 14.9456L38.7914 13.0931C38.7914 12.7274 38.7192 12.3653 38.579 12.0275C38.4388 11.6898 38.2333 11.3831 37.9743 11.1249C37.7153 10.8668 37.4078 10.6623 37.0696 10.5232C36.7314 10.3841 36.3691 10.3131 36.0034 10.3143ZM15.1257 8.07095C15.4728 7.72592 15.9423 7.53225 16.4317 7.53225C16.9211 7.53225 17.3907 7.72592 17.7378 8.07095L19.9793 10.3143L14.8479 10.3143C14.6366 9.96318 14.5492 9.55135 14.5996 9.14467C14.6499 8.73799 14.8352 8.35994 15.1257 8.07095ZM20.3776 36.9347L12.0413 36.9347C11.3043 36.9347 10.5976 36.642 10.0764 36.1209C9.55533 35.5998 9.26257 34.893 9.26257 34.156L9.26257 17.7243L20.3776 17.7243L20.3776 36.9347ZM20.3776 15.8718L8.45673 15.8718C8.21107 15.8718 7.97548 15.7742 7.80177 15.6005C7.62807 15.4268 7.53048 15.1912 7.53048 14.9456L7.53048 13.0931C7.53048 12.8474 7.62807 12.6118 7.80177 12.4381C7.97548 12.2644 8.21107 12.1668 8.45673 12.1668L20.3776 12.1668L20.3776 15.8718ZM26.7316 8.07095C27.0503 7.75418 27.4732 7.56401 27.9216 7.53584C28.37 7.50768 28.8134 7.64345 29.1691 7.91786C29.5249 8.19227 29.7688 8.58663 29.8554 9.0275C29.9421 9.46837 29.8655 9.92569 29.6401 10.3143L24.4901 10.3143L26.7316 8.07095ZM35.1976 34.156C35.1976 34.893 34.9048 35.5998 34.3837 36.1209C33.8626 36.642 33.1558 36.9347 32.4188 36.9347L24.0826 36.9347L24.0826 17.7243L35.1976 17.7243L35.1976 34.156ZM36.9389 14.9456C36.9389 15.1912 36.8413 15.4268 36.6676 15.6005C36.4939 15.7742 36.2583 15.8718 36.0127 15.8718L24.0826 15.8718L24.0826 12.1668L36.0127 12.1668C36.2583 12.1668 36.4939 12.2644 36.6676 12.4381C36.8413 12.6118 36.9389 12.8474 36.9389 13.0931L36.9389 14.9456Z" fill="rgb(112.207,65.3376,115.812)" fill-rule="evenodd" />
</svg>
