<svg viewBox="0 0 173 57" xmlns="http://www.w3.org/2000/svg" xmlns:xlink="http://www.w3.org/1999/xlink" width="173.000000" height="57.000000" fill="none" customFrame="#000000">
	<g id="logo">
		<path id="&amp;" d="M93.742 49.6504C91.7679 47.9518 89.8627 46.1384 88.0264 44.2102C86.2359 42.2361 84.5602 40.2161 82.9994 38.1502C81.4844 36.0844 80.0841 33.9955 78.7987 31.8837C77.5592 29.726 76.5033 27.6142 75.631 25.5483C74.0701 27.2469 72.5092 28.9685 70.9483 30.713C69.4333 32.4116 68.079 34.1332 66.8853 35.8778C65.6917 37.5764 64.7276 39.298 63.9931 41.0425C63.2126 42.7411 62.8224 44.4398 62.8224 46.1384C62.8224 48.1584 63.1667 49.9029 63.8554 51.372C64.4981 52.7952 65.3704 53.9658 66.4722 54.884C67.574 55.8022 68.8365 56.4679 70.2596 56.8811C71.6828 57.2942 73.1519 57.5008 74.6669 57.5008C77.6969 57.5008 80.9105 56.7892 84.3078 55.3661C87.705 53.9429 90.8498 52.0377 93.742 49.6504ZM85.203 8.8145C85.203 7.20768 84.8357 6.05996 84.1012 5.37133C83.4125 4.63679 82.655 4.26952 81.8287 4.26952C81.14 4.26952 80.4055 4.49907 79.625 4.95815C78.8905 5.41724 78.2019 6.08292 77.5592 6.95519C76.9623 7.78155 76.4573 8.79154 76.0442 9.98517C75.631 11.1788 75.4244 12.4872 75.4244 13.9104C75.4244 16.5272 75.9064 19.3047 76.8705 22.2428C78.0182 21.0492 79.0971 19.8785 80.1071 18.7308C81.1171 17.5831 81.9893 16.4583 82.7239 15.3565C83.5043 14.2088 84.1012 13.107 84.5143 12.0511C84.9734 10.9493 85.203 9.8704 85.203 8.8145ZM111.715 59.0847C111.715 59.2224 111.624 59.3601 111.44 59.4979C111.256 59.6356 110.981 59.7045 110.614 59.7045C107.859 58.8322 105.15 57.6156 102.488 56.0547C99.8249 54.4479 97.2311 52.5886 94.7061 50.4768C92.9616 51.8081 91.1482 53.0247 89.2659 54.1265C87.3836 55.2283 85.4555 56.1695 83.4814 56.9499C81.5532 57.7304 79.6021 58.3272 77.628 58.7404C75.6998 59.1535 73.8405 59.3601 72.0501 59.3601C70.3055 59.3601 68.6528 59.1076 67.0919 58.6026C65.531 58.1436 64.1767 57.432 63.029 56.4679C61.8813 55.4579 60.9861 54.2183 60.3433 52.7493C59.6547 51.2802 59.3104 49.5586 59.3104 47.5845C59.3104 45.4727 59.7924 43.4068 60.7565 41.3868C61.7206 39.3209 62.9601 37.3009 64.4751 35.3269C65.9901 33.3528 67.6658 31.4246 69.5022 29.5423C71.3844 27.6601 73.2208 25.8237 75.0112 24.0333C73.6799 20.4524 73.0142 17.2158 73.0142 14.3236C73.0142 12.6249 73.3126 11.064 73.9094 9.64085C74.5521 8.21768 75.3555 7.0011 76.3196 5.9911C77.2837 4.98111 78.3396 4.20066 79.4873 3.64975C80.681 3.05294 81.8057 2.75453 82.8616 2.75453C84.1012 2.75453 85.2259 3.16771 86.2359 3.99407C87.2459 4.77452 87.7509 6.08292 87.7509 7.91927C87.7509 9.06699 87.4525 10.2606 86.8557 11.5002C86.3048 12.7397 85.5473 14.0252 84.5832 15.3565C83.665 16.642 82.5632 17.9963 81.2778 19.4194C80.0382 20.7967 78.7298 22.2199 77.3526 23.689C78.8676 27.8667 81.1171 32.1132 84.1012 36.4287C87.1311 40.6982 90.8038 44.6923 95.1193 48.4109C97.4606 46.2991 99.3429 43.9807 100.766 41.4557C102.189 38.9307 102.901 36.2909 102.901 33.5364C102.901 32.6182 102.763 31.7001 102.488 30.7819C102.258 29.8178 101.776 28.8078 101.042 27.7519C101.042 27.6601 101.179 27.5683 101.455 27.4764C101.73 27.3387 101.983 27.2699 102.212 27.2699C102.855 27.2699 103.36 27.4994 103.727 27.9585C104.14 28.3717 104.439 28.8767 104.622 29.4735C104.852 30.0703 104.99 30.6901 105.036 31.3328C105.127 31.9296 105.173 32.4116 105.173 32.7789C105.173 35.8089 104.324 38.7471 102.625 41.5934C100.973 44.3939 98.8149 46.9647 96.1522 49.3061C100.605 53.1165 105.632 56.2154 111.233 58.6026C111.555 58.7863 111.715 58.947 111.715 59.0847Z" fill="rgb(255,165.055,91.8)" fill-rule="nonzero" />
		<path id="Wake Bake" d="M13.1856 34.5024C13.1856 33.0682 13.093 31.8769 12.908 30.9285C12.746 29.98 12.5147 29.5058 12.214 29.5058C12.0289 29.5058 11.8554 29.6446 11.6935 29.9222C11.5316 30.1767 11.3928 30.5468 11.2771 31.0326C11.1846 31.4952 11.1036 32.0504 11.0342 32.6981C10.988 33.3227 10.9648 34.0051 10.9648 34.7453C10.9648 36.0639 11.0574 37.4865 11.2424 39.0133C11.4275 40.5169 11.7513 41.9743 12.214 43.3854C12.5379 41.9049 12.7807 40.3897 12.9427 38.8398C13.1046 37.2668 13.1856 35.821 13.1856 34.5024ZM27.7244 18.7492C27.7244 18.8648 27.6781 18.9574 27.5856 19.0268C27.4931 19.0961 27.3774 19.1771 27.2386 19.2696C26.5446 19.686 25.9779 20.2643 25.5384 21.0046C25.0988 21.7448 24.7403 22.5545 24.4627 23.4335C24.2082 24.3125 24.0347 25.2147 23.9422 26.14C23.8497 27.0422 23.8034 27.875 23.8034 28.6383C23.8034 29.1704 23.8266 29.8297 23.8728 30.6162C23.9422 31.3795 24.0116 32.2239 24.081 33.1492C24.1735 34.0745 24.2429 35.0576 24.2892 36.0986C24.3586 37.1164 24.3933 38.1574 24.3933 39.2215C24.3933 40.7251 24.3008 42.1825 24.1157 43.5935C23.9538 45.0046 23.6184 46.2654 23.1094 47.3757C22.6237 48.4861 21.9412 49.3767 21.0622 50.0475C20.1832 50.7184 19.0381 51.0538 17.627 51.0538C16.9793 51.0538 16.3663 50.9266 15.788 50.6721C15.2328 50.4408 14.7123 50.1054 14.2265 49.6658C13.7639 49.2263 13.3359 48.7174 12.9427 48.1391C12.5726 47.5608 12.2371 46.9246 11.9364 46.2307C11.6357 47.0403 11.2771 47.7921 10.8607 48.4861C10.4675 49.1801 10.028 49.7815 9.54219 50.2904C9.0564 50.7993 8.52435 51.1926 7.94604 51.4702C7.36773 51.7478 6.75471 51.8866 6.107 51.8866C5.1123 51.8866 4.26796 51.6321 3.57398 51.1232C2.90314 50.6143 2.34796 49.9434 1.90844 49.1107C1.46892 48.301 1.12193 47.3757 0.867472 46.3348C0.636146 45.2707 0.462651 44.195 0.346989 43.1078C0.231326 41.9974 0.150362 40.9217 0.104097 39.8808C0.080964 38.8167 0.0578314 37.8798 0.0346989 37.0702C-0.0115663 35.6128 0.0115663 34.2364 0.104097 32.941C0.219759 31.6224 0.346989 30.4427 0.485784 29.4017C0.62458 28.3376 0.763375 27.4239 0.90217 26.6605C1.04097 25.8971 1.1335 25.3304 1.17976 24.9603C1.20289 24.8215 1.34169 24.7289 1.59615 24.6827C1.87374 24.6364 2.11663 24.6133 2.32482 24.6133C2.48675 24.6133 2.62555 24.6364 2.74121 24.6827C2.85687 24.7058 2.9147 24.7752 2.9147 24.8909C2.9147 25.0297 2.85687 25.2725 2.74121 25.6195C2.62555 25.9434 2.45205 26.568 2.22073 27.4933C2.1282 27.9097 2.0241 28.5111 1.90844 29.2976C1.81591 30.061 1.72338 30.9285 1.63085 31.9C1.56145 32.8716 1.50362 33.9126 1.45735 35.0229C1.41109 36.1102 1.38795 37.1743 1.38795 38.2152C1.38795 39.0249 1.42265 39.9155 1.49205 40.887C1.56145 41.8355 1.67711 42.7839 1.83904 43.7323C2.00097 44.6576 2.22073 45.5598 2.49832 46.4389C2.77591 47.3179 3.11133 48.0928 3.50459 48.7637C3.92097 49.4345 4.40676 49.9666 4.96194 50.3598C5.51712 50.7762 6.16483 50.9844 6.90507 50.9844C7.46026 50.9844 7.96917 50.8456 8.43182 50.568C8.89447 50.2904 9.32243 49.8972 9.71568 49.3883C10.1089 48.9025 10.4559 48.3242 10.7566 47.6533C11.0805 46.9825 11.3697 46.2538 11.6241 45.4673C11.0921 44.0099 10.6988 42.46 10.4444 40.8176C10.1899 39.1752 10.0627 37.66 10.0627 36.2721C10.0627 35.2542 10.0974 34.248 10.1668 33.2533C10.2593 32.2586 10.3865 31.368 10.5485 30.5815C10.7104 29.795 10.9186 29.1588 11.173 28.673C11.4275 28.1873 11.7282 27.9444 12.0752 27.9444C12.3528 27.9444 12.5957 28.1179 12.8039 28.4648C13.0352 28.8118 13.2203 29.286 13.3591 29.8875C13.521 30.4889 13.6367 31.2061 13.706 32.0388C13.7986 32.8485 13.8448 33.7275 13.8448 34.6759C13.8448 36.2027 13.7407 37.8104 13.5326 39.4991C13.3244 41.1646 13.0005 42.7955 12.561 44.3916C12.8617 45.2013 13.2087 45.9531 13.602 46.647C13.9952 47.3179 14.4347 47.9078 14.9205 48.4167C15.4294 48.9256 15.9846 49.3189 16.5861 49.5964C17.2106 49.8972 17.893 50.0475 18.6333 50.0475C19.6511 50.0475 20.4839 49.7931 21.1316 49.2842C21.7793 48.7984 22.2882 48.1275 22.6584 47.2716C23.0285 46.3926 23.2829 45.3863 23.4217 44.2528C23.5605 43.0962 23.6299 41.8586 23.6299 40.54C23.6299 39.3603 23.5837 38.1458 23.4911 36.8967C23.4217 35.6475 23.3408 34.4099 23.2482 33.1839C23.1557 31.9347 23.0632 30.7318 22.9706 29.5752C22.9012 28.3954 22.8666 27.3082 22.8666 26.3135C22.8666 25.5964 22.9706 24.7636 23.1788 23.8152C23.4102 22.8668 23.7109 21.9762 24.081 21.1434C24.4743 20.2875 24.9138 19.5704 25.3996 18.9921C25.9085 18.3906 26.4405 18.0899 26.9957 18.0899C27.1576 18.0899 27.3196 18.1708 27.4815 18.3328C27.6434 18.4716 27.7244 18.6104 27.7244 18.7492ZM38.5588 41.7892C38.5588 41.4422 38.501 41.1646 38.3853 40.9564C38.2697 40.7251 38.0846 40.6094 37.8302 40.6094C37.4369 40.6094 37.1362 40.8061 36.928 41.1993C36.7198 41.5694 36.6273 42.0437 36.6504 42.622C36.7198 43.848 36.9396 44.8774 37.3097 45.7102C37.7029 45.1781 38.0037 44.5767 38.2118 43.9058C38.4432 43.235 38.5588 42.5294 38.5588 41.7892ZM47.9275 41.7545C47.7656 42.1015 47.5921 42.46 47.407 42.8302C47.222 43.1772 47.0138 43.5241 46.7825 43.8711C45.6027 45.6292 44.4114 46.9362 43.2085 47.7921C42.0056 48.648 40.8837 49.076 39.8427 49.076C38.5241 49.076 37.5179 48.4514 36.8239 47.2022C36.0143 48.0119 35.1005 48.6249 34.0827 49.0413C33.088 49.4576 32.1049 49.6658 31.1333 49.6658C30.555 49.6658 29.9998 49.5849 29.4677 49.423C28.9588 49.261 28.5193 49.0181 28.1492 48.6943C27.7559 48.3473 27.4436 47.9193 27.2123 47.4104C26.981 46.8784 26.8653 46.2654 26.8653 45.5714C26.8653 44.7386 27.0619 43.8943 27.4552 43.0384C27.8253 42.1593 28.3458 41.3728 29.0167 40.6788C29.7106 39.9617 30.5203 39.3718 31.4456 38.9092C32.3709 38.4465 33.3771 38.2152 34.4644 38.2152C35.3434 38.2152 36.0258 38.3424 36.5116 38.5969C36.9974 38.8282 37.2403 39.048 37.2403 39.2562C37.2403 39.3487 37.194 39.4181 37.1015 39.4644C37.009 39.5106 36.928 39.5338 36.8586 39.5338C36.8355 39.5106 36.8123 39.4991 36.7892 39.4991L36.7545 39.4991C36.4769 39.2446 36.1646 39.048 35.8176 38.9092C35.4706 38.7473 34.9617 38.6663 34.2909 38.6663C33.3887 38.6663 32.5675 38.8629 31.8273 39.2562C31.1101 39.6263 30.4971 40.1237 29.9882 40.7482C29.4793 41.3497 29.086 42.0205 28.8085 42.7608C28.5309 43.501 28.3921 44.2297 28.3921 44.9468C28.3921 46.3348 28.7159 47.341 29.3636 47.9656C30.0114 48.5902 30.821 48.9025 31.7926 48.9025C32.5791 48.9025 33.4003 48.7058 34.2562 48.3126C35.1121 47.9193 35.8755 47.3642 36.5463 46.647C36.1762 45.8143 35.9911 44.727 35.9911 43.3854C35.9911 42.5063 36.153 41.7429 36.4769 41.0952C36.8008 40.4475 37.2634 40.1237 37.8649 40.1237C38.6976 40.1237 39.114 40.6094 39.114 41.581C39.114 42.5526 38.9752 43.4316 38.6976 44.2181C38.42 44.9815 38.0499 45.6755 37.5873 46.3001C38.235 47.5029 39.1372 48.1044 40.2938 48.1044C41.1728 48.1044 42.1097 47.7343 43.1044 46.994C44.1222 46.2538 45.1169 45.1781 46.0885 43.767C46.3198 43.4201 46.528 43.0615 46.7131 42.6914C46.8981 42.3213 47.0832 41.9511 47.2682 41.581L47.9275 41.7545L47.9275 41.7545ZM52.7471 26.2441C52.7471 24.9256 52.5274 23.873 52.0879 23.0865C51.6715 22.2769 50.9659 21.8721 49.9712 21.8721C49.6242 21.8721 49.3004 21.9877 48.9997 22.219C48.7221 22.4272 48.4792 22.7164 48.271 23.0865C48.0628 23.4566 47.9009 23.8846 47.7852 24.3704C47.6695 24.8562 47.6117 25.3766 47.6117 25.9318C47.6117 27.4586 47.6233 28.8465 47.6464 30.0957C47.6695 31.3448 47.6927 32.5246 47.7158 33.635C47.7621 34.7453 47.8083 35.821 47.8546 36.862C47.9009 37.9029 47.9471 38.967 47.9934 40.0543C48.6642 39.1521 49.2888 38.1227 49.8671 36.9661C50.4455 35.7863 50.9428 34.5834 51.3592 33.3574C51.7987 32.1082 52.1341 30.8706 52.3655 29.6446C52.6199 28.4186 52.7471 27.2851 52.7471 26.2441ZM65.3081 41.7545C65.1462 42.1015 64.9727 42.46 64.7877 42.8302C64.6257 43.2003 64.4175 43.5473 64.1631 43.8711C62.8908 45.6755 61.445 47.0981 59.8257 48.1391C58.2064 49.1569 56.5987 49.6658 55.0026 49.6658C54.0079 49.6658 53.0594 49.4345 52.1573 48.9719C51.2551 48.5323 50.457 47.8152 49.763 46.8205C49.6705 46.7049 49.6242 46.6008 49.6242 46.5082C49.6242 46.3001 49.763 46.196 50.0406 46.196C50.0638 46.196 50.1447 46.2191 50.2835 46.2654C50.4686 46.2654 50.6768 46.3348 50.9081 46.4735C51.1626 46.5892 51.5211 46.647 51.9838 46.647C52.7009 46.647 53.3717 46.5198 53.9963 46.2654C54.6209 46.0109 55.1529 45.687 55.5925 45.2938C56.0551 44.8774 56.4137 44.4147 56.6681 43.9058C56.9226 43.3738 57.0498 42.8302 57.0498 42.275C57.0498 41.581 56.8647 40.9796 56.4946 40.4706C56.1476 39.9617 55.5462 39.7073 54.6903 39.7073C53.8112 39.7073 53.0016 40.0196 52.2614 40.6441C51.5211 41.2456 50.8503 41.9858 50.2488 42.8649C49.6705 43.7208 49.1732 44.6345 48.7568 45.6061C48.3404 46.5545 48.0281 47.3873 47.8199 48.1044C47.7042 48.4977 47.6001 48.7405 47.5076 48.8331C47.4151 48.9256 47.311 48.9719 47.1953 48.9719C46.9409 48.9719 46.8252 48.729 46.8483 48.2432C46.8483 48.035 46.8599 47.7805 46.883 47.4798C46.9062 47.1791 46.9293 46.8552 46.9524 46.5082C46.9524 46.1613 46.964 45.8143 46.9871 45.4673C47.0103 45.0972 47.0218 44.7617 47.0218 44.461C47.0218 43.4201 46.9987 42.2287 46.9524 40.887C46.9062 39.5222 46.8483 38.1227 46.7789 36.6885C46.7095 35.2311 46.6517 33.7853 46.6054 32.3511C46.5592 30.9169 46.536 29.5983 46.536 28.3954C46.536 27.447 46.6054 26.5333 46.7442 25.6542C46.883 24.7521 47.1028 23.9656 47.4035 23.2947C47.7042 22.6007 48.0859 22.0571 48.5486 21.6639C49.0112 21.2475 49.5549 21.0393 50.1794 21.0393C50.8271 21.0393 51.3708 21.1549 51.8103 21.3863C52.2729 21.5945 52.6431 21.9068 52.9206 22.3231C53.1982 22.7164 53.3949 23.2022 53.5105 23.7805C53.6493 24.3357 53.7187 24.9487 53.7187 25.6195C53.7187 26.7762 53.5568 28.0485 53.2329 29.4364C52.9091 30.8012 52.4811 32.1776 51.9491 33.5656C51.417 34.9535 50.804 36.2952 50.11 37.5906C49.4392 38.8629 48.7452 39.9733 48.0281 40.9217C48.0744 41.6157 48.0975 42.3328 48.0975 43.0731C48.1206 43.8133 48.1553 44.5998 48.2016 45.4326C48.7799 44.1834 49.4161 43.1078 50.11 42.2056C50.4108 41.8123 50.7462 41.4306 51.1163 41.0605C51.5096 40.6673 51.9144 40.3203 52.3308 40.0196C52.7703 39.7188 53.2329 39.4759 53.7187 39.2909C54.2276 39.1058 54.7597 39.0133 55.3149 39.0133C56.1939 39.0133 56.9573 39.2331 57.605 39.6726C58.2527 40.1121 58.5766 40.8176 58.5766 41.7892C58.5766 42.7145 58.3452 43.501 57.8826 44.1487C57.4431 44.7964 56.8879 45.3401 56.217 45.7796C55.5462 46.196 54.8291 46.5082 54.0657 46.7164C53.3023 46.9246 52.6083 47.0519 51.9838 47.0981C51.9375 47.0981 51.9144 47.1097 51.9144 47.1328C51.9144 47.1791 51.9491 47.2485 52.0185 47.341C52.4811 47.8731 53.0016 48.2548 53.5799 48.4861C54.1582 48.7174 54.7597 48.8331 55.3843 48.8331C56.1476 48.8331 56.9226 48.6943 57.7091 48.4167C58.4956 48.116 59.2474 47.7343 59.9645 47.2716C60.6816 46.7858 61.3409 46.2422 61.9423 45.6408C62.5669 45.0162 63.0758 44.3916 63.4691 43.767C63.7004 43.4201 63.9086 43.0615 64.0937 42.6914C64.2787 42.3213 64.4638 41.9511 64.6489 41.581L65.3081 41.7545L65.3081 41.7545ZM70.1999 39.6032C70.1999 38.9786 70.0379 38.4697 69.7141 38.0764C69.4133 37.66 68.916 37.4518 68.222 37.4518C67.8519 37.4518 67.5165 37.5675 67.2158 37.7988C66.915 38.0302 66.6606 38.3424 66.4524 38.7357C66.2442 39.1058 66.0823 39.5453 65.9666 40.0543C65.8509 40.5632 65.7931 41.0952 65.7931 41.6504C65.7931 42.5294 65.8856 43.316 66.0707 44.0099C66.2789 44.6808 66.568 45.2707 66.9382 45.7796C67.424 45.3863 67.8635 44.9352 68.2567 44.4263C68.65 43.9174 68.9854 43.3854 69.263 42.8302C69.5637 42.275 69.795 41.7198 69.957 41.1646C70.1189 40.6094 70.1999 40.089 70.1999 39.6032ZM78.9787 41.7545C78.8167 42.1015 78.6432 42.46 78.4582 42.8302C78.2963 43.1772 78.0881 43.5241 77.8336 43.8711C76.7001 45.4904 75.4047 46.7164 73.9473 47.5492C72.5131 48.3589 71.1367 48.7637 69.8182 48.7637C69.0779 48.7637 68.3839 48.6364 67.7362 48.382C67.1117 48.1275 66.568 47.7458 66.1054 47.2369C65.6427 46.728 65.2726 46.0919 64.995 45.3285C64.7174 44.5651 64.5786 43.6629 64.5786 42.622C64.5786 41.928 64.6827 41.234 64.8909 40.54C65.0991 39.8461 65.3767 39.2215 65.7237 38.6663C66.0938 38.1111 66.5102 37.66 66.9729 37.313C67.4586 36.9661 67.9676 36.7926 68.4996 36.7926C69.3555 36.7926 69.9801 37.047 70.3734 37.5559C70.7666 38.0417 70.9632 38.6663 70.9632 39.4297C70.9632 40.4706 70.6394 41.6041 69.9917 42.8302C69.3671 44.0331 68.4649 45.155 67.2851 46.196C68.1642 47.1907 69.2977 47.688 70.6856 47.688C71.7266 47.688 72.8138 47.3757 73.9473 46.7511C75.0808 46.1034 76.1449 45.1087 77.1396 43.767C77.3941 43.4432 77.6023 43.0962 77.7642 42.7261C77.9493 42.3328 78.1343 41.9511 78.3194 41.581L78.9787 41.7545L78.9787 41.7545ZM109.04 33.0104C108.184 33.0104 107.363 33.1029 106.577 33.288C105.813 33.473 105.131 33.6928 104.53 33.9473C103.951 34.2017 103.477 34.4677 103.107 34.7453C102.76 35.0229 102.586 35.2658 102.586 35.474C102.586 35.7516 102.91 35.8904 103.558 35.8904C104.668 35.8904 105.721 35.6244 106.716 35.0923C107.733 34.5603 108.647 33.8663 109.457 33.0104L109.04 33.0104L109.04 33.0104ZM119.138 38.2152C119.138 39.3487 118.814 40.5747 118.166 41.8933C117.542 43.2119 116.674 44.5188 115.564 45.8143C114.453 47.1097 113.135 48.3589 111.608 49.5617C110.081 50.7646 108.439 51.8287 106.681 52.754C104.923 53.6793 103.072 54.408 101.129 54.9401C99.1859 55.4953 97.2427 55.7728 95.2996 55.7728C94.9758 55.7728 94.6172 55.7613 94.2239 55.7381C93.8538 55.715 93.5068 55.6572 93.183 55.5647C92.8591 55.4953 92.5815 55.368 92.3502 55.183C92.1189 55.021 92.0032 54.7897 92.0032 54.489C92.0032 54.0726 92.2114 53.6678 92.6278 53.2745C93.0442 52.9044 93.5762 52.5574 94.2239 52.2336C94.8717 51.9097 95.5772 51.6205 96.3406 51.3661C97.104 51.1116 97.8326 50.8919 98.5266 50.7068C99.2437 50.5218 99.8683 50.3714 100.4 50.2557C100.932 50.1632 101.291 50.1169 101.476 50.1169C101.615 50.1169 101.719 50.1516 101.788 50.221C101.858 50.2904 101.892 50.3598 101.892 50.4292C101.892 50.5449 101.835 50.6027 101.719 50.6027L101.268 50.6027C100.666 50.6027 99.903 50.7184 98.9777 50.9497C98.0524 51.181 97.1502 51.4702 96.2712 51.8172C95.3921 52.1642 94.6403 52.5458 94.0157 52.9622C93.3912 53.4018 93.0789 53.8066 93.0789 54.1767C93.0789 54.4312 93.1598 54.6278 93.3218 54.7666C93.5068 54.9285 93.7266 55.0557 93.981 55.1483C94.2355 55.2408 94.5015 55.2986 94.7791 55.3218C95.0567 55.368 95.2996 55.3912 95.5078 55.3912C97.1502 55.3912 98.8273 55.1136 100.539 54.5584C102.274 54.0032 103.951 53.263 105.57 52.3377C107.213 51.4355 108.751 50.383 110.185 49.1801C111.643 48.0003 112.915 46.7743 114.002 45.502C115.09 44.2066 115.945 42.9227 116.57 41.6504C117.195 40.355 117.507 39.1521 117.507 38.0417C117.507 36.6769 116.94 35.5434 115.807 34.6412C114.696 33.7159 112.857 33.1839 110.29 33.0451C109.249 34.0167 108.103 34.8032 106.854 35.4046C105.628 36.0061 104.379 36.3068 103.107 36.3068C102.205 36.3068 101.754 36.087 101.754 35.6475C101.754 35.3699 101.939 35.0576 102.309 34.7106C102.702 34.3405 103.234 33.9935 103.905 33.6697C104.599 33.3458 105.42 33.0798 106.369 32.8716C107.317 32.6403 108.358 32.5246 109.491 32.5246L109.908 32.5246C110.671 31.6224 111.284 30.6393 111.747 29.5752C112.21 28.488 112.441 27.4239 112.441 26.3829C112.441 25.6889 112.314 25.0297 112.059 24.4051C111.828 23.7574 111.435 23.2022 110.879 22.7395C110.347 22.2769 109.642 21.9068 108.763 21.6292C107.907 21.3516 106.866 21.2128 105.64 21.2128C104.807 21.2128 103.65 21.3284 102.17 21.5598C100.713 21.7911 99.1281 22.1496 97.4162 22.6354C95.7276 23.0981 94.0042 23.688 92.2461 24.4051C90.488 25.1222 88.8919 25.955 87.4577 26.9034C86.0234 27.8518 84.8552 28.9275 83.9531 30.1304C83.0509 31.3333 82.5998 32.6634 82.5998 34.1208C82.5998 34.3058 82.5651 34.4677 82.4957 34.6065C82.4263 34.7222 82.3569 34.78 82.2875 34.78C82.195 34.78 82.1256 34.6875 82.0793 34.5024C82.0099 34.2943 81.9752 33.9588 81.9752 33.4962C82.1834 31.9926 82.7964 30.6277 83.8143 29.4017C84.8321 28.1757 86.0928 27.0885 87.5965 26.14C89.0769 25.1684 90.7078 24.3357 92.489 23.6417C94.2702 22.9477 96.0283 22.381 97.7632 21.9415C99.5213 21.4788 101.152 21.1434 102.656 20.9352C104.183 20.7039 105.432 20.5882 106.403 20.5882C107.814 20.5882 109.006 20.727 109.977 21.0046C110.972 21.259 111.782 21.6176 112.406 22.0802C113.031 22.5198 113.482 23.0518 113.759 23.6764C114.037 24.301 114.176 24.9603 114.176 25.6542C114.176 26.7877 113.863 27.9675 113.239 29.1935C112.637 30.3964 111.816 31.5183 110.775 32.5593C112.256 32.6287 113.528 32.8253 114.592 33.1492C115.656 33.4499 116.524 33.8547 117.195 34.3636C117.865 34.8494 118.351 35.4277 118.652 36.0986C118.976 36.7463 119.138 37.4518 119.138 38.2152ZM100.747 47.341C100.747 47.6649 100.724 47.8962 100.678 48.035C100.632 48.1738 100.504 48.2432 100.296 48.2432C99.8336 48.2895 99.6023 47.8268 99.6023 46.8552C99.5791 43.6629 99.5444 40.7482 99.4982 38.1111C99.475 35.474 99.4403 33.1954 99.3941 31.2754C99.3709 29.3323 99.3478 27.794 99.3247 26.6605C99.3015 25.527 99.29 24.8793 99.29 24.7174C99.29 24.5323 99.3478 24.4051 99.4635 24.3357C99.5791 24.2663 99.7179 24.2084 99.8799 24.1622C100.065 24.1622 100.204 24.22 100.296 24.3357C100.412 24.4513 100.47 24.5901 100.47 24.7521C100.47 26.6027 100.481 28.5111 100.504 30.4774C100.528 32.4205 100.551 34.3636 100.574 36.3068C100.62 38.2499 100.655 40.1584 100.678 42.0321C100.724 43.9058 100.747 45.6755 100.747 47.341ZM132.625 41.7892C132.625 41.4422 132.567 41.1646 132.452 40.9564C132.336 40.7251 132.151 40.6094 131.897 40.6094C131.503 40.6094 131.203 40.8061 130.994 41.1993C130.786 41.5694 130.694 42.0437 130.717 42.622C130.786 43.848 131.006 44.8774 131.376 45.7102C131.769 45.1781 132.07 44.5767 132.278 43.9058C132.51 43.235 132.625 42.5294 132.625 41.7892ZM141.994 41.7545C141.832 42.1015 141.659 42.46 141.473 42.8302C141.288 43.1772 141.08 43.5241 140.849 43.8711C139.669 45.6292 138.478 46.9362 137.275 47.7921C136.072 48.648 134.95 49.076 133.909 49.076C132.591 49.076 131.584 48.4514 130.89 47.2022C130.081 48.0119 129.167 48.6249 128.149 49.0413C127.154 49.4576 126.171 49.6658 125.2 49.6658C124.621 49.6658 124.066 49.5849 123.534 49.423C123.025 49.261 122.586 49.0181 122.216 48.6943C121.822 48.3473 121.51 47.9193 121.279 47.4104C121.047 46.8784 120.932 46.2654 120.932 45.5714C120.932 44.7386 121.128 43.8943 121.522 43.0384C121.892 42.1593 122.412 41.3728 123.083 40.6788C123.777 39.9617 124.587 39.3718 125.512 38.9092C126.437 38.4465 127.444 38.2152 128.531 38.2152C129.41 38.2152 130.092 38.3424 130.578 38.5969C131.064 38.8282 131.307 39.048 131.307 39.2562C131.307 39.3487 131.26 39.4181 131.168 39.4644C131.075 39.5106 130.994 39.5338 130.925 39.5338C130.902 39.5106 130.879 39.4991 130.856 39.4991L130.821 39.4991C130.543 39.2446 130.231 39.048 129.884 38.9092C129.537 38.7473 129.028 38.6663 128.357 38.6663C127.455 38.6663 126.634 38.8629 125.894 39.2562C125.177 39.6263 124.564 40.1237 124.055 40.7482C123.546 41.3497 123.152 42.0205 122.875 42.7608C122.597 43.501 122.459 44.2297 122.459 44.9468C122.459 46.3348 122.782 47.341 123.43 47.9656C124.078 48.5902 124.887 48.9025 125.859 48.9025C126.646 48.9025 127.467 48.7058 128.323 48.3126C129.179 47.9193 129.942 47.3642 130.613 46.647C130.243 45.8143 130.058 44.727 130.058 43.3854C130.058 42.5063 130.219 41.7429 130.543 41.0952C130.867 40.4475 131.33 40.1237 131.931 40.1237C132.764 40.1237 133.18 40.6094 133.18 41.581C133.18 42.5526 133.042 43.4316 132.764 44.2181C132.486 44.9815 132.116 45.6755 131.654 46.3001C132.301 47.5029 133.204 48.1044 134.36 48.1044C135.239 48.1044 136.176 47.7343 137.171 46.994C138.189 46.2538 139.183 45.1781 140.155 43.767C140.386 43.4201 140.594 43.0615 140.78 42.6914C140.965 42.3213 141.15 41.9511 141.335 41.581L141.994 41.7545L141.994 41.7545ZM146.814 26.2441C146.814 24.9256 146.594 23.873 146.154 23.0865C145.738 22.2769 145.032 21.8721 144.038 21.8721C143.691 21.8721 143.367 21.9877 143.066 22.219C142.789 22.4272 142.546 22.7164 142.337 23.0865C142.129 23.4566 141.967 23.8846 141.852 24.3704C141.736 24.8562 141.678 25.3766 141.678 25.9318C141.678 27.4586 141.69 28.8465 141.713 30.0957C141.736 31.3448 141.759 32.5246 141.782 33.635C141.829 34.7453 141.875 35.821 141.921 36.862C141.967 37.9029 142.014 38.967 142.06 40.0543C142.731 39.1521 143.355 38.1227 143.934 36.9661C144.512 35.7863 145.009 34.5834 145.426 33.3574C145.865 32.1082 146.201 30.8706 146.432 29.6446C146.686 28.4186 146.814 27.2851 146.814 26.2441ZM159.375 41.7545C159.213 42.1015 159.039 42.46 158.854 42.8302C158.692 43.2003 158.484 43.5473 158.23 43.8711C156.957 45.6755 155.511 47.0981 153.892 48.1391C152.273 49.1569 150.665 49.6658 149.069 49.6658C148.074 49.6658 147.126 49.4345 146.224 48.9719C145.322 48.5323 144.523 47.8152 143.829 46.8205C143.737 46.7049 143.691 46.6008 143.691 46.5082C143.691 46.3001 143.829 46.196 144.107 46.196C144.13 46.196 144.211 46.2191 144.35 46.2654C144.535 46.2654 144.743 46.3348 144.975 46.4735C145.229 46.5892 145.588 46.647 146.05 46.647C146.767 46.647 147.438 46.5198 148.063 46.2654C148.687 46.0109 149.219 45.687 149.659 45.2938C150.122 44.8774 150.48 44.4147 150.735 43.9058C150.989 43.3738 151.116 42.8302 151.116 42.275C151.116 41.581 150.931 40.9796 150.561 40.4706C150.214 39.9617 149.613 39.7073 148.757 39.7073C147.878 39.7073 147.068 40.0196 146.328 40.6441C145.588 41.2456 144.917 41.9858 144.315 42.8649C143.737 43.7208 143.24 44.6345 142.823 45.6061C142.407 46.5545 142.095 47.3873 141.886 48.1044C141.771 48.4977 141.667 48.7405 141.574 48.8331C141.482 48.9256 141.377 48.9719 141.262 48.9719C141.007 48.9719 140.892 48.729 140.915 48.2432C140.915 48.035 140.926 47.7805 140.949 47.4798C140.973 47.1791 140.996 46.8552 141.019 46.5082C141.019 46.1613 141.03 45.8143 141.054 45.4673C141.077 45.0972 141.088 44.7617 141.088 44.461C141.088 43.4201 141.065 42.2287 141.019 40.887C140.973 39.5222 140.915 38.1227 140.845 36.6885C140.776 35.2311 140.718 33.7853 140.672 32.3511C140.626 30.9169 140.602 29.5983 140.602 28.3954C140.602 27.447 140.672 26.5333 140.811 25.6542C140.949 24.7521 141.169 23.9656 141.47 23.2947C141.771 22.6007 142.152 22.0571 142.615 21.6639C143.078 21.2475 143.621 21.0393 144.246 21.0393C144.894 21.0393 145.437 21.1549 145.877 21.3863C146.339 21.5945 146.71 21.9068 146.987 22.3231C147.265 22.7164 147.461 23.2022 147.577 23.7805C147.716 24.3357 147.785 24.9487 147.785 25.6195C147.785 26.7762 147.623 28.0485 147.299 29.4364C146.976 30.8012 146.548 32.1776 146.016 33.5656C145.483 34.9535 144.87 36.2952 144.176 37.5906C143.506 38.8629 142.812 39.9733 142.095 40.9217C142.141 41.6157 142.164 42.3328 142.164 43.0731C142.187 43.8133 142.222 44.5998 142.268 45.4326C142.846 44.1834 143.482 43.1078 144.176 42.2056C144.477 41.8123 144.813 41.4306 145.183 41.0605C145.576 40.6673 145.981 40.3203 146.397 40.0196C146.837 39.7188 147.299 39.4759 147.785 39.2909C148.294 39.1058 148.826 39.0133 149.381 39.0133C150.26 39.0133 151.024 39.2331 151.671 39.6726C152.319 40.1121 152.643 40.8176 152.643 41.7892C152.643 42.7145 152.412 43.501 151.949 44.1487C151.51 44.7964 150.954 45.3401 150.283 45.7796C149.613 46.196 148.896 46.5082 148.132 46.7164C147.369 46.9246 146.675 47.0519 146.05 47.0981C146.004 47.0981 145.981 47.1097 145.981 47.1328C145.981 47.1791 146.016 47.2485 146.085 47.341C146.548 47.8731 147.068 48.2548 147.646 48.4861C148.225 48.7174 148.826 48.8331 149.451 48.8331C150.214 48.8331 150.989 48.6943 151.776 48.4167C152.562 48.116 153.314 47.7343 154.031 47.2716C154.748 46.7858 155.407 46.2422 156.009 45.6408C156.633 45.0162 157.142 44.3916 157.536 43.767C157.767 43.4201 157.975 43.0615 158.16 42.6914C158.345 42.3213 158.53 41.9511 158.715 41.581L159.375 41.7545L159.375 41.7545ZM164.266 39.6032C164.266 38.9786 164.104 38.4697 163.781 38.0764C163.48 37.66 162.982 37.4518 162.288 37.4518C161.918 37.4518 161.583 37.5675 161.282 37.7988C160.981 38.0302 160.727 38.3424 160.519 38.7357C160.311 39.1058 160.149 39.5453 160.033 40.0543C159.917 40.5632 159.86 41.0952 159.86 41.6504C159.86 42.5294 159.952 43.316 160.137 44.0099C160.345 44.6808 160.634 45.2707 161.005 45.7796C161.49 45.3863 161.93 44.9352 162.323 44.4263C162.716 43.9174 163.052 43.3854 163.329 42.8302C163.63 42.275 163.861 41.7198 164.023 41.1646C164.185 40.6094 164.266 40.089 164.266 39.6032ZM173.045 41.7545C172.883 42.1015 172.71 42.46 172.525 42.8302C172.363 43.1772 172.155 43.5241 171.9 43.8711C170.767 45.4904 169.471 46.7164 168.014 47.5492C166.58 48.3589 165.203 48.7637 163.885 48.7637C163.144 48.7637 162.45 48.6364 161.803 48.382C161.178 48.1275 160.634 47.7458 160.172 47.2369C159.709 46.728 159.339 46.0919 159.061 45.3285C158.784 44.5651 158.645 43.6629 158.645 42.622C158.645 41.928 158.749 41.234 158.957 40.54C159.166 39.8461 159.443 39.2215 159.79 38.6663C160.16 38.1111 160.577 37.66 161.039 37.313C161.525 36.9661 162.034 36.7926 162.566 36.7926C163.422 36.7926 164.047 37.047 164.44 37.5559C164.833 38.0417 165.03 38.6663 165.03 39.4297C165.03 40.4706 164.706 41.6041 164.058 42.8302C163.434 44.0331 162.531 45.155 161.352 46.196C162.231 47.1907 163.364 47.688 164.752 47.688C165.793 47.688 166.88 47.3757 168.014 46.7511C169.147 46.1034 170.211 45.1087 171.206 43.767C171.461 43.4432 171.669 43.0962 171.831 42.7261C172.016 42.3328 172.201 41.9511 172.386 41.581L173.045 41.7545L173.045 41.7545Z" fill="rgb(30.8125,23.3405,17.255)" fill-rule="nonzero" />
	</g>
</svg>
